<?xml version="1.0" encoding="UTF-8" standalone="no"?>
<!-- Created with Inkscape (http://www.inkscape.org/) -->

<svg
   id="svg2"
   sodipodi:docname="Logo.svg"
   inkscape:export-filename="Logo.png"
   viewBox="0 0 500 499.99998"
   inkscape:export-xdpi="42.993629"
   version="1.1"
   inkscape:export-ydpi="42.993629"
   inkscape:version="1.2.2 (b0a8486541, 2022-12-01)"
   width="500"
   height="500"
   xmlns:inkscape="http://www.inkscape.org/namespaces/inkscape"
   xmlns:sodipodi="http://sodipodi.sourceforge.net/DTD/sodipodi-0.dtd"
   xmlns="http://www.w3.org/2000/svg"
   xmlns:svg="http://www.w3.org/2000/svg"
   xmlns:rdf="http://www.w3.org/1999/02/22-rdf-syntax-ns#"
   xmlns:cc="http://creativecommons.org/ns#"
   xmlns:dc="http://purl.org/dc/elements/1.1/">
  <title
     id="title3075">Film</title>
  <defs
     id="defs4">
    <filter
       id="filter3865"
       inkscape:collect="always"
       color-interpolation-filters="sRGB"
       x="-0.052269732"
       y="-0.07712275"
       width="1.0914769"
       height="1.1421058">
      <feGaussianBlur
         id="feGaussianBlur3867"
         stdDeviation="2.1875"
         inkscape:collect="always" />
    </filter>
    <filter
       id="filter3917"
       height="1.7445161"
       width="1.0986325"
       color-interpolation-filters="sRGB"
       y="-0.37225806"
       x="-0.049316238"
       inkscape:collect="always">
      <feGaussianBlur
         id="feGaussianBlur3919"
         stdDeviation="3.975"
         inkscape:collect="always" />
    </filter>
  </defs>
  <sodipodi:namedview
     id="base"
     fit-margin-left="0"
     inkscape:zoom="1"
     borderopacity="1.0"
     inkscape:current-layer="layer1"
     inkscape:cx="140"
     inkscape:cy="231"
     inkscape:window-maximized="1"
     showgrid="false"
     fit-margin-right="0"
     showguides="true"
     bordercolor="#666666"
     inkscape:window-x="1920"
     inkscape:guide-bbox="true"
     inkscape:window-y="0"
     fit-margin-bottom="0"
     inkscape:window-width="1680"
     inkscape:pageopacity="0.0"
     inkscape:pageshadow="2"
     pagecolor="#ffffff"
     inkscape:document-units="px"
     inkscape:window-height="1027"
     fit-margin-top="0"
     inkscape:showpageshadow="2"
     inkscape:pagecheckerboard="0"
     inkscape:deskcolor="#d1d1d1">
    <inkscape:grid
       id="grid2985"
       originy="-453.45998"
       enabled="true"
       originx="-107.75"
       visible="true"
       snapvisiblegridlinesonly="true"
       type="xygrid"
       empspacing="5"
       spacingx="1"
       spacingy="1" />
    <sodipodi:guide
       id="guide3869"
       position="0.65475468,229.59626"
       orientation="0,1"
       inkscape:locked="false" />
  </sodipodi:namedview>
  <g
     id="layer1"
     inkscape:label="Layer 1"
     inkscape:groupmode="layer"
     transform="translate(-107.75,-327.36)">
    <ellipse
       id="path3871"
       style="color:#000000;fill:#666666;stroke:#ffffff;stroke-width:4;stroke-linecap:round;stroke-linejoin:round;filter:url(#filter3917)"
       transform="matrix(1.1608095,0,0,1.022867,137.88459,378.44485)"
       cx="148"
       cy="244.49998"
       rx="117"
       ry="15.5" />
    <g
       id="g3009"
       style="fill:#4d4d4d"
       transform="matrix(0.95823833,0,0,1.0282219,64.904893,40.595607)">
      <ellipse
         id="path2999"
         style="color:#000000;fill:#4d4d4d;stroke:#000000;stroke-width:2"
         transform="matrix(0.95374,0,0,1.0781,11.565,-40.738)"
         cx="250"
         cy="457.36218"
         rx="130"
         ry="115" />
      <g
         id="g3001"
         style="fill:#4d4d4d">
        <path
           id="path2987"
           style="fill:#4d4d4d;stroke:#000000;stroke-width:1px"
           d="m 340,422.36 c 20,0 20,60 0,60 -20,0 -47.673,-2.8975 -60,-20 -3.8981,-5.4083 -3.8981,-14.592 0,-20 12.327,-17.102 40,-20 60,-20 z"
           sodipodi:nodetypes="sssss"
           inkscape:connector-curvature="0"
           inkscape:transform-center-x="-66.038224" />
        <path
           id="path2989"
           style="fill:#4d4d4d;stroke:#000000;stroke-width:1px"
           d="m 269.02,359.42 c 10,-17.32 61.962,12.68 51.962,30 -10,17.321 -26.346,39.837 -47.321,41.962 -6.6327,0.67169 -14.586,-3.92 -17.32,-10 -8.6478,-19.227 2.6795,-44.641 12.679,-61.962 z"
           inkscape:transform-center-x="-37.759305"
           inkscape:transform-center-y="-59.532501"
           inkscape:connector-curvature="0"
           sodipodi:nodetypes="sssss" />
        <path
           id="path2991"
           style="fill:#4d4d4d;stroke:#000000;stroke-width:1px"
           d="m 179.02,389.42 c -10,-17.32 41.962,-47.32 51.962,-30 10,17.321 21.327,42.735 12.679,61.962 -2.7347,6.08 -10.688,10.672 -17.32,10 -20.975,-2.1241 -37.321,-24.641 -47.321,-41.962 z"
           inkscape:transform-center-x="37.759305"
           sodipodi:nodetypes="sssss"
           inkscape:transform-center-y="-59.532501"
           inkscape:connector-curvature="0" />
        <path
           id="path2993"
           style="fill:#4d4d4d;stroke:#000000;stroke-width:1px"
           d="m 160,482.36 c -20,0 -20,-60 0,-60 20,0 47.673,2.8975 60,20 3.8981,5.4083 3.8981,14.592 0,20 -12.327,17.102 -40,20 -60,20 z"
           inkscape:transform-center-x="66.038224"
           inkscape:connector-curvature="0"
           sodipodi:nodetypes="sssss" />
        <path
           id="path2995"
           style="fill:#4d4d4d;stroke:#000000;stroke-width:1px"
           d="m 230.98,545.3 c -10,17.32 -61.962,-12.68 -51.962,-30 10,-17.321 26.346,-39.837 47.321,-41.962 6.6327,-0.67169 14.586,3.92 17.32,10 8.6478,19.227 -2.6795,44.641 -12.679,61.962 z"
           sodipodi:nodetypes="sssss"
           inkscape:transform-center-y="59.532501"
           inkscape:connector-curvature="0"
           inkscape:transform-center-x="37.759305" />
        <path
           id="path2997"
           sodipodi:nodetypes="sssss"
           d="m 320.98,515.3 c 10,17.32 -41.962,47.32 -51.962,30 -10,-17.321 -21.327,-42.735 -12.679,-61.962 2.7347,-6.08 10.688,-10.672 17.32,-10 20.975,2.1241 37.321,24.641 47.321,41.962 z"
           inkscape:transform-center-x="-37.759307"
           inkscape:transform-center-y="59.532501"
           inkscape:connector-curvature="0"
           style="fill:#4d4d4d;stroke:#000000;stroke-width:1px" />
      </g>
    </g>
    <g
       id="g3942"
       transform="matrix(1.0278107,0,0,1.0278107,38.862234,40.767926)">
      <path
         id="path3039"
         d="m 310,352.36 c 0,0 64.146,38.166 100,40 24.235,1.2396 110,10 110,10 l -60,40 c 0,0 -60.268,-27.702 -70,-30 -29.017,-6.8499 -70,-40 -70,-40 z"
         sodipodi:nodetypes="csccscc"
         style="fill:#e6e6e6;stroke:#000000;stroke-width:1px"
         inkscape:connector-curvature="0" />
      <path
         id="path3053"
         d="m 460,435.36 -28,-14 28,-21 43,6 z"
         style="fill:#999999;stroke:#000000;stroke-width:1px"
         inkscape:connector-curvature="0" />
      <path
         id="path3055"
         d="m 428,419.36 -25,-9 19,-14 31,3 z"
         style="fill:#808080;stroke:#000000;stroke-width:1px"
         inkscape:connector-curvature="0" />
      <path
         id="path3057"
         d="m 400,409.36 -22,-6 15,-11 23,3 z"
         style="fill:#808080;stroke:#000000;stroke-width:1px"
         inkscape:connector-curvature="0" />
      <path
         id="path3059"
         d="m 375,402.36 -13,-6 13,-10 14,5 z"
         style="fill:#808080;stroke:#000000;stroke-width:1px"
         inkscape:connector-curvature="0" />
      <path
         id="path3061"
         d="m 360,394.36 -9,-5 11,-8 8,3 z"
         style="fill:#b3b3b3;stroke:#000000;stroke-width:1px"
         inkscape:connector-curvature="0" />
      <path
         id="path3063"
         d="m 348,386.36 -8,-4 10,-6 7,5 z"
         style="fill:#cccccc;stroke:#000000;stroke-width:1px"
         inkscape:connector-curvature="0" />
      <path
         id="path3065"
         d="m 338,380.36 -9,-6 9,-4 6,4 z"
         style="fill:none;stroke:#000000;stroke-width:1px"
         inkscape:connector-curvature="0" />
    </g>
    <ellipse
       id="path3021"
       style="color:#000000;fill:#cccccc;stroke:#000000;stroke-width:4.03722"
       cx="289.13318"
       cy="505.69208"
       rx="118.80814"
       ry="127.47681" />
    <g
       id="g3023"
       style="fill:#666666"
       transform="matrix(0.95823833,0,0,1.0282219,49.573049,40.595607)">
      <path
         id="path3025"
         style="fill:#666666;stroke:#000000;stroke-width:1px"
         d="m 340,422.36 c 20,0 20,60 0,60 -20,0 -47.673,-2.8975 -60,-20 -3.8981,-5.4083 -3.8981,-14.592 0,-20 12.327,-17.102 40,-20 60,-20 z"
         sodipodi:nodetypes="sssss"
         inkscape:connector-curvature="0"
         inkscape:transform-center-x="-66.038224" />
      <path
         id="path3027"
         style="fill:#666666;stroke:#000000;stroke-width:1px"
         d="m 269.02,359.42 c 10,-17.32 61.962,12.68 51.962,30 -10,17.321 -26.346,39.837 -47.321,41.962 -6.6327,0.67169 -14.586,-3.92 -17.32,-10 -8.6478,-19.227 2.6795,-44.641 12.679,-61.962 z"
         inkscape:transform-center-x="-37.759305"
         inkscape:transform-center-y="-59.532501"
         inkscape:connector-curvature="0"
         sodipodi:nodetypes="sssss" />
      <path
         id="path3029"
         style="fill:#666666;stroke:#000000;stroke-width:1px"
         d="m 179.02,389.42 c -10,-17.32 41.962,-47.32 51.962,-30 10,17.321 21.327,42.735 12.679,61.962 -2.7347,6.08 -10.688,10.672 -17.32,10 -20.975,-2.1241 -37.321,-24.641 -47.321,-41.962 z"
         inkscape:transform-center-x="37.759305"
         sodipodi:nodetypes="sssss"
         inkscape:transform-center-y="-59.532501"
         inkscape:connector-curvature="0" />
      <path
         id="path3031"
         style="fill:#666666;stroke:#000000;stroke-width:1px"
         d="m 160,482.36 c -20,0 -20,-60 0,-60 20,0 47.673,2.8975 60,20 3.8981,5.4083 3.8981,14.592 0,20 -12.327,17.102 -40,20 -60,20 z"
         inkscape:transform-center-x="66.038224"
         inkscape:connector-curvature="0"
         sodipodi:nodetypes="sssss" />
      <path
         id="path3033"
         style="fill:#666666;stroke:#000000;stroke-width:1px"
         d="m 230.98,545.3 c -10,17.32 -61.962,-12.68 -51.962,-30 10,-17.321 26.346,-39.837 47.321,-41.962 6.6327,-0.67169 14.586,3.92 17.32,10 8.6478,19.227 -2.6795,44.641 -12.679,61.962 z"
         sodipodi:nodetypes="sssss"
         inkscape:transform-center-y="59.532501"
         inkscape:connector-curvature="0"
         inkscape:transform-center-x="37.759305" />
      <path
         id="path3035"
         sodipodi:nodetypes="sssss"
         d="m 320.98,515.3 c 10,17.32 -41.962,47.32 -51.962,30 -10,-17.321 -21.327,-42.735 -12.679,-61.962 2.7347,-6.08 10.688,-10.672 17.32,-10 20.975,2.1241 37.321,24.641 47.321,41.962 z"
         inkscape:transform-center-x="-37.759307"
         inkscape:transform-center-y="59.532501"
         inkscape:connector-curvature="0"
         style="fill:#666666;stroke:#000000;stroke-width:1px" />
    </g>
    <ellipse
       id="path3037"
       style="color:#000000;fill:#000000;stroke:#000000;stroke-width:4.03722;stroke-linecap:round;stroke-linejoin:round"
       cx="289.133"
       cy="505.72412"
       rx="4.7911911"
       ry="5.1411095" />
    <path
       id="path3079"
       style="fill:none;stroke:#ffffff;stroke-width:4;filter:url(#filter3865)"
       d="M 6,102 C 6,102 29.455,52.642 40,42 52.561,29.324 68.294,19.274 85,13 95.724,8.9728 141,8 141,8"
       sodipodi:nodetypes="cssc"
       inkscape:connector-curvature="0"
       transform="matrix(0.95823833,0,0,1.0282219,169.35308,377.19093)" />
    <text
       xml:space="preserve"
       style="font-size:168.692px;font-family:'Joti One';-inkscape-font-specification:'Joti One, Normal';fill:#808080;fill-opacity:1;fill-rule:evenodd;stroke:#000000;stroke-width:4.99505;stroke-dasharray:none;stroke-opacity:1"
       x="145.96968"
       y="784.79492"
       id="text657"><tspan
         sodipodi:role="line"
         id="tspan655"
         x="145.96968"
         y="784.79492"
         style="fill:#808080;fill-opacity:1;stroke:#000000;stroke-width:4.99505;stroke-dasharray:none;stroke-opacity:1">Actor</tspan></text>
  </g>
  <metadata
     id="metadata343">
    <rdf:RDF>
      <cc:Work>
        <dc:format>image/svg+xml</dc:format>
        <dc:type
           rdf:resource="http://purl.org/dc/dcmitype/StillImage" />
        <cc:license
           rdf:resource="http://creativecommons.org/publicdomain/zero/1.0/" />
        <dc:publisher>
          <cc:Agent
             rdf:about="http://openclipart.org/">
            <dc:title>Openclipart</dc:title>
          </cc:Agent>
        </dc:publisher>
        <dc:title>Film</dc:title>
      </cc:Work>
      <cc:License
         rdf:about="http://creativecommons.org/publicdomain/zero/1.0/">
        <cc:permits
           rdf:resource="http://creativecommons.org/ns#Reproduction" />
        <cc:permits
           rdf:resource="http://creativecommons.org/ns#Distribution" />
        <cc:permits
           rdf:resource="http://creativecommons.org/ns#DerivativeWorks" />
      </cc:License>
    </rdf:RDF>
  </metadata>
</svg>
