<?xml version="1.0" encoding="UTF-8" standalone="no"?>
<!-- Created with Inkscape (http://www.inkscape.org/) -->

<svg
   id="svg2"
   sodipodi:docname="Logo.svg"
   inkscape:export-filename="Logo.png"
   viewBox="0 0 426.93945 415.14439"
   inkscape:export-xdpi="42.993629"
   version="1.1"
   inkscape:export-ydpi="42.993629"
   inkscape:version="1.2.2 (b0a8486541, 2022-12-01)"
   width="426.93945"
   height="415.14441"
   xmlns:inkscape="http://www.inkscape.org/namespaces/inkscape"
   xmlns:sodipodi="http://sodipodi.sourceforge.net/DTD/sodipodi-0.dtd"
   xmlns="http://www.w3.org/2000/svg"
   xmlns:svg="http://www.w3.org/2000/svg"
   xmlns:rdf="http://www.w3.org/1999/02/22-rdf-syntax-ns#"
   xmlns:cc="http://creativecommons.org/ns#"
   xmlns:dc="http://purl.org/dc/elements/1.1/">
  <title
     id="title3075">Film</title>
  <defs
     id="defs4">
    <filter
       id="filter3865"
       inkscape:collect="always"
       color-interpolation-filters="sRGB"
       x="-0.052269731"
       y="-0.077122748"
       width="1.0914769"
       height="1.1421058">
      <feGaussianBlur
         id="feGaussianBlur3867"
         stdDeviation="2.1875"
         inkscape:collect="always" />
    </filter>
    <filter
       id="filter3917"
       height="1.7445161"
       width="1.0986325"
       color-interpolation-filters="sRGB"
       y="-0.37225807"
       x="-0.049316239"
       inkscape:collect="always">
      <feGaussianBlur
         id="feGaussianBlur3919"
         stdDeviation="3.975"
         inkscape:collect="always" />
    </filter>
  </defs>
  <sodipodi:namedview
     id="base"
     fit-margin-left="0"
     inkscape:zoom="1"
     borderopacity="1.0"
     inkscape:current-layer="layer1"
     inkscape:cx="140"
     inkscape:cy="231"
     inkscape:window-maximized="1"
     showgrid="false"
     fit-margin-right="0"
     showguides="true"
     bordercolor="#666666"
     inkscape:window-x="1920"
     inkscape:guide-bbox="true"
     inkscape:window-y="0"
     fit-margin-bottom="0"
     inkscape:window-width="1680"
     inkscape:pageopacity="0.0"
     inkscape:pageshadow="2"
     pagecolor="#ffffff"
     inkscape:document-units="px"
     inkscape:window-height="1027"
     fit-margin-top="0"
     inkscape:showpageshadow="2"
     inkscape:pagecheckerboard="0"
     inkscape:deskcolor="#d1d1d1">
    <inkscape:grid
       id="grid2985"
       originy="-453.45998"
       enabled="true"
       originx="-107.75"
       visible="true"
       snapvisiblegridlinesonly="true"
       type="xygrid"
       empspacing="5"
       spacingx="1"
       spacingy="1" />
    <sodipodi:guide
       id="guide3869"
       position="-39.454871,193.57733"
       orientation="0,1"
       inkscape:locked="false" />
  </sodipodi:namedview>
  <g
     id="layer1"
     inkscape:label="Layer 1"
     inkscape:groupmode="layer"
     transform="translate(-147.85963,-376.19666)">
    <path
       id="path3871"
       style="fill:#666666;stroke:#ffffff;stroke-width:4;stroke-linecap:round;stroke-linejoin:round;filter:url(#filter3917)"
       transform="matrix(1.1608095,0,0,1.022867,137.88459,378.44485)"
       d="m 265,244.49998 a 117,15.5 0 0 1 -117,15.5 117,15.5 0 0 1 -117,-15.5 117,15.5 0 0 1 117,-15.5 117,15.5 0 0 1 117,15.5 z" />
    <g
       id="g3009"
       style="fill:#4d4d4d"
       transform="matrix(0.95823833,0,0,1.0282219,64.904893,40.595607)">
      <path
         id="path2999"
         style="stroke:#000000;stroke-width:2"
         transform="matrix(0.95374,0,0,1.0781,11.565,-40.738)"
         d="m 380,457.36218 a 130,115 0 0 1 -130,115 130,115 0 0 1 -130,-115 130,115 0 0 1 130,-115 130,115 0 0 1 130,115 z" />
      <g
         id="g3001"
         style="fill:#4d4d4d">
        <path
           id="path2987"
           style="fill:#4d4d4d;stroke:#000000;stroke-width:1px"
           d="m 340,422.36 c 20,0 20,60 0,60 -20,0 -47.673,-2.8975 -60,-20 -3.8981,-5.4083 -3.8981,-14.592 0,-20 12.327,-17.102 40,-20 60,-20 z"
           sodipodi:nodetypes="sssss"
           inkscape:connector-curvature="0"
           inkscape:transform-center-x="-66.038224" />
        <path
           id="path2989"
           style="fill:#4d4d4d;stroke:#000000;stroke-width:1px"
           d="m 269.02,359.42 c 10,-17.32 61.962,12.68 51.962,30 -10,17.321 -26.346,39.837 -47.321,41.962 -6.6327,0.67169 -14.586,-3.92 -17.32,-10 -8.6478,-19.227 2.6795,-44.641 12.679,-61.962 z"
           inkscape:transform-center-x="-37.759305"
           inkscape:transform-center-y="-59.532501"
           inkscape:connector-curvature="0"
           sodipodi:nodetypes="sssss" />
        <path
           id="path2991"
           style="fill:#4d4d4d;stroke:#000000;stroke-width:1px"
           d="m 179.02,389.42 c -10,-17.32 41.962,-47.32 51.962,-30 10,17.321 21.327,42.735 12.679,61.962 -2.7347,6.08 -10.688,10.672 -17.32,10 -20.975,-2.1241 -37.321,-24.641 -47.321,-41.962 z"
           inkscape:transform-center-x="37.759305"
           sodipodi:nodetypes="sssss"
           inkscape:transform-center-y="-59.532501"
           inkscape:connector-curvature="0" />
        <path
           id="path2993"
           style="fill:#4d4d4d;stroke:#000000;stroke-width:1px"
           d="m 160,482.36 c -20,0 -20,-60 0,-60 20,0 47.673,2.8975 60,20 3.8981,5.4083 3.8981,14.592 0,20 -12.327,17.102 -40,20 -60,20 z"
           inkscape:transform-center-x="66.038224"
           inkscape:connector-curvature="0"
           sodipodi:nodetypes="sssss" />
        <path
           id="path2995"
           style="fill:#4d4d4d;stroke:#000000;stroke-width:1px"
           d="m 230.98,545.3 c -10,17.32 -61.962,-12.68 -51.962,-30 10,-17.321 26.346,-39.837 47.321,-41.962 6.6327,-0.67169 14.586,3.92 17.32,10 8.6478,19.227 -2.6795,44.641 -12.679,61.962 z"
           sodipodi:nodetypes="sssss"
           inkscape:transform-center-y="59.532501"
           inkscape:connector-curvature="0"
           inkscape:transform-center-x="37.759305" />
        <path
           id="path2997"
           sodipodi:nodetypes="sssss"
           d="m 320.98,515.3 c 10,17.32 -41.962,47.32 -51.962,30 -10,-17.321 -21.327,-42.735 -12.679,-61.962 2.7347,-6.08 10.688,-10.672 17.32,-10 20.975,2.1241 37.321,24.641 47.321,41.962 z"
           inkscape:transform-center-x="-37.759307"
           inkscape:transform-center-y="59.532501"
           inkscape:connector-curvature="0"
           style="fill:#4d4d4d;stroke:#000000;stroke-width:1px" />
      </g>
    </g>
    <g
       id="g3942"
       transform="matrix(1.0278107,0,0,1.0278107,38.862234,40.767926)">
      <path
         id="path3039"
         d="m 310,352.36 c 0,0 64.146,38.166 100,40 24.235,1.2396 110,10 110,10 l -60,40 c 0,0 -60.268,-27.702 -70,-30 -29.017,-6.8499 -70,-40 -70,-40 z"
         sodipodi:nodetypes="csccscc"
         style="fill:#e6e6e6;stroke:#000000;stroke-width:1px"
         inkscape:connector-curvature="0" />
      <path
         id="path3053"
         d="m 460,435.36 -28,-14 28,-21 43,6 z"
         style="fill:#999999;stroke:#000000;stroke-width:1px"
         inkscape:connector-curvature="0" />
      <path
         id="path3055"
         d="m 428,419.36 -25,-9 19,-14 31,3 z"
         style="fill:#808080;stroke:#000000;stroke-width:1px"
         inkscape:connector-curvature="0" />
      <path
         id="path3057"
         d="m 400,409.36 -22,-6 15,-11 23,3 z"
         style="fill:#808080;stroke:#000000;stroke-width:1px"
         inkscape:connector-curvature="0" />
      <path
         id="path3059"
         d="m 375,402.36 -13,-6 13,-10 14,5 z"
         style="fill:#808080;stroke:#000000;stroke-width:1px"
         inkscape:connector-curvature="0" />
      <path
         id="path3061"
         d="m 360,394.36 -9,-5 11,-8 8,3 z"
         style="fill:#b3b3b3;stroke:#000000;stroke-width:1px"
         inkscape:connector-curvature="0" />
      <path
         id="path3063"
         d="m 348,386.36 -8,-4 10,-6 7,5 z"
         style="fill:#cccccc;stroke:#000000;stroke-width:1px"
         inkscape:connector-curvature="0" />
      <path
         id="path3065"
         d="m 338,380.36 -9,-6 9,-4 6,4 z"
         style="fill:none;stroke:#000000;stroke-width:1px"
         inkscape:connector-curvature="0" />
    </g>
    <path
       id="path3021"
       style="fill:#cccccc;stroke:#000000;stroke-width:4.03722"
       d="M 407.94132,505.69208 A 118.80814,127.47681 0 0 1 289.13318,633.16888 118.80814,127.47681 0 0 1 170.32504,505.69208 118.80814,127.47681 0 0 1 289.13318,378.21527 118.80814,127.47681 0 0 1 407.94132,505.69208 Z" />
    <g
       id="g3023"
       style="fill:#666666"
       transform="matrix(0.95823833,0,0,1.0282219,49.573049,40.595607)">
      <path
         id="path3025"
         style="fill:#666666;stroke:#000000;stroke-width:1px"
         d="m 340,422.36 c 20,0 20,60 0,60 -20,0 -47.673,-2.8975 -60,-20 -3.8981,-5.4083 -3.8981,-14.592 0,-20 12.327,-17.102 40,-20 60,-20 z"
         sodipodi:nodetypes="sssss"
         inkscape:connector-curvature="0"
         inkscape:transform-center-x="-66.038224" />
      <path
         id="path3027"
         style="fill:#666666;stroke:#000000;stroke-width:1px"
         d="m 269.02,359.42 c 10,-17.32 61.962,12.68 51.962,30 -10,17.321 -26.346,39.837 -47.321,41.962 -6.6327,0.67169 -14.586,-3.92 -17.32,-10 -8.6478,-19.227 2.6795,-44.641 12.679,-61.962 z"
         inkscape:transform-center-x="-37.759305"
         inkscape:transform-center-y="-59.532501"
         inkscape:connector-curvature="0"
         sodipodi:nodetypes="sssss" />
      <path
         id="path3029"
         style="fill:#666666;stroke:#000000;stroke-width:1px"
         d="m 179.02,389.42 c -10,-17.32 41.962,-47.32 51.962,-30 10,17.321 21.327,42.735 12.679,61.962 -2.7347,6.08 -10.688,10.672 -17.32,10 -20.975,-2.1241 -37.321,-24.641 -47.321,-41.962 z"
         inkscape:transform-center-x="37.759305"
         sodipodi:nodetypes="sssss"
         inkscape:transform-center-y="-59.532501"
         inkscape:connector-curvature="0" />
      <path
         id="path3031"
         style="fill:#666666;stroke:#000000;stroke-width:1px"
         d="m 160,482.36 c -20,0 -20,-60 0,-60 20,0 47.673,2.8975 60,20 3.8981,5.4083 3.8981,14.592 0,20 -12.327,17.102 -40,20 -60,20 z"
         inkscape:transform-center-x="66.038224"
         inkscape:connector-curvature="0"
         sodipodi:nodetypes="sssss" />
      <path
         id="path3033"
         style="fill:#666666;stroke:#000000;stroke-width:1px"
         d="m 230.98,545.3 c -10,17.32 -61.962,-12.68 -51.962,-30 10,-17.321 26.346,-39.837 47.321,-41.962 6.6327,-0.67169 14.586,3.92 17.32,10 8.6478,19.227 -2.6795,44.641 -12.679,61.962 z"
         sodipodi:nodetypes="sssss"
         inkscape:transform-center-y="59.532501"
         inkscape:connector-curvature="0"
         inkscape:transform-center-x="37.759305" />
      <path
         id="path3035"
         sodipodi:nodetypes="sssss"
         d="m 320.98,515.3 c 10,17.32 -41.962,47.32 -51.962,30 -10,-17.321 -21.327,-42.735 -12.679,-61.962 2.7347,-6.08 10.688,-10.672 17.32,-10 20.975,2.1241 37.321,24.641 47.321,41.962 z"
         inkscape:transform-center-x="-37.759307"
         inkscape:transform-center-y="59.532501"
         inkscape:connector-curvature="0"
         style="fill:#666666;stroke:#000000;stroke-width:1px" />
    </g>
    <path
       id="path3037"
       style="stroke:#000000;stroke-width:4.03722;stroke-linecap:round;stroke-linejoin:round"
       d="m 293.92419,505.72412 a 4.7911911,5.1411095 0 0 1 -4.79119,5.14111 4.7911911,5.1411095 0 0 1 -4.7912,-5.14111 4.7911911,5.1411095 0 0 1 4.7912,-5.14111 4.7911911,5.1411095 0 0 1 4.79119,5.14111 z" />
    <path
       id="path3079"
       style="fill:none;stroke:#ffffff;stroke-width:4;filter:url(#filter3865)"
       d="M 6,102 C 6,102 29.455,52.642 40,42 52.561,29.324 68.294,19.274 85,13 95.724,8.9728 141,8 141,8"
       sodipodi:nodetypes="cssc"
       inkscape:connector-curvature="0"
       transform="matrix(0.95823833,0,0,1.0282219,169.35308,377.19093)" />
    <g
       aria-label="Actor"
       id="text657"
       style="font-size:168.692px;font-family:'Joti One';-inkscape-font-specification:'Joti One, Normal';fill:#808080;fill-rule:evenodd;stroke:#000000;stroke-width:4.99505">
      <path
         d="m 167.89964,787.3253 -16.8692,-2.53038 31.54541,-112.18018 40.82346,2.53038 21.92996,109.6498 -15.18228,2.53038 -11.63975,-28.00287 -44.87207,3.71122 z m 46.89638,-36.94355 -23.44819,-56.51182 h -1.34954 l -13.32666,56.17444 z"
         id="path471" />
      <path
         d="m 301.67239,788.84353 q -12.14582,0 -22.09865,-2.86776 -9.78414,-2.86777 -14.8449,-7.08507 -1.34953,-6.74768 -2.0243,-12.14582 -0.50608,-5.56684 -0.50608,-10.45891 0,-15.01358 4.72338,-27.49679 4.72337,-12.6519 11.97713,-21.59258 7.25376,-9.10937 14.8449,-13.32667 l 29.18371,19.0622 q -20.91781,11.30236 -33.23232,26.99072 -12.31452,15.68836 -12.31452,33.23232 7.08507,1.01216 14.67621,1.01216 7.42244,0 15.01359,-1.18085 7.75983,-1.34953 15.51966,-4.38599 l 5.06076,16.36312 q -6.57899,2.193 -13.15798,3.03646 -6.57898,0.84346 -12.82059,0.84346 z"
         id="path473" />
      <path
         d="m 356.83452,787.3253 -7.25375,-68.15157 -15.51967,2.193 -1.01215,-17.37528 14.8449,-0.67476 -2.53038,-23.61688 42.0043,-5.56684 -3.37384,27.3281 16.70051,-0.84346 -0.50607,11.30237 -17.88136,2.53038 -8.77198,71.35671 z"
         id="path475" />
      <path
         d="m 445.06027,788.84353 q -11.97713,0 -20.41173,-2.86776 -8.26591,-2.69908 -13.49536,-6.91638 -1.34953,-6.74768 -2.0243,-12.98928 -0.50608,-6.4103 -0.50608,-12.31452 0,-11.80844 3.37384,-21.92996 3.54253,-10.12152 8.60329,-17.88135 5.22946,-7.92852 10.6276,-12.98928 5.39814,-5.22945 9.10937,-7.08507 7.59114,3.87992 15.01359,9.44676 7.42244,5.56683 13.49536,12.98928 6.2416,7.42245 9.95282,16.70051 3.71123,9.27806 3.71123,20.74911 0,11.63975 -3.20515,19.39958 -3.20515,7.75984 -11.30236,11.63975 -8.09722,4.04861 -22.94212,4.04861 z m -9.10936,-14.6762 q 6.41029,0 12.82059,-0.84346 6.57899,-1.01216 11.47105,-2.69908 1.34954,-5.39814 2.02431,-10.79628 0.67477,-5.39815 0.67477,-10.6276 0,-16.02574 -6.74768,-29.35241 -9.44676,4.89207 -16.70051,13.66405 -7.25376,8.6033 -11.47106,19.0622 -4.04861,10.29021 -4.04861,20.58042 5.39815,1.01216 11.97714,1.01216 z"
         id="path477" />
      <path
         d="m 510.51281,787.3253 -8.6033,-83.67123 36.10009,-5.56684 -3.37384,26.99072 h 1.18085 q 6.41029,-14.00143 15.18228,-21.92996 8.94067,-8.09721 19.23088,-8.94067 l -4.72337,35.93139 q -2.69907,-0.33738 -5.22945,-0.50607 -2.36169,-0.33739 -4.72338,-0.33739 -7.25376,0 -12.48321,3.20515 -5.06076,3.20515 -8.4346,11.47106 -3.20515,8.09721 -5.06076,22.77342 l -2.36169,19.06219 z"
         id="path479" />
    </g>
  </g>
  <metadata
     id="metadata343">
    <rdf:RDF>
      <cc:Work>
        <dc:format>image/svg+xml</dc:format>
        <dc:type
           rdf:resource="http://purl.org/dc/dcmitype/StillImage" />
        <cc:license
           rdf:resource="http://creativecommons.org/publicdomain/zero/1.0/" />
        <dc:publisher>
          <cc:Agent
             rdf:about="http://openclipart.org/">
            <dc:title>Openclipart</dc:title>
          </cc:Agent>
        </dc:publisher>
        <dc:title>Film</dc:title>
      </cc:Work>
      <cc:License
         rdf:about="http://creativecommons.org/publicdomain/zero/1.0/">
        <cc:permits
           rdf:resource="http://creativecommons.org/ns#Reproduction" />
        <cc:permits
           rdf:resource="http://creativecommons.org/ns#Distribution" />
        <cc:permits
           rdf:resource="http://creativecommons.org/ns#DerivativeWorks" />
      </cc:License>
    </rdf:RDF>
  </metadata>
</svg>
